<?xml version="1.0" encoding="UTF-8" standalone="no"?>
<!DOCTYPE svg PUBLIC "-//W3C//DTD SVG 1.1//EN" "http://www.w3.org/Graphics/SVG/1.1/DTD/svg11.dtd">
<svg width="100%" height="100%" viewBox="0 0 3600 3600" version="1.1" xmlns="http://www.w3.org/2000/svg" xmlns:xlink="http://www.w3.org/1999/xlink" xml:space="preserve" xmlns:serif="http://www.serif.com/" style="fill-rule:evenodd;clip-rule:evenodd;stroke-linejoin:round;stroke-miterlimit:2;">
    <g transform="matrix(1.1581,0,0,1.1581,-284.583,-284.583)">
        <g id="Layer">
            <path d="M2650.09,1941.37C2680.95,1884.83 2735.6,1835.99 2782.48,1808.73C2790.15,1804.27 2817.65,1790.13 2832.02,1784.33C2848.88,1777.55 2899.39,1759.62 2967.47,1736.24C3031.98,1714.02 3083.64,1694.66 3119.6,1679.22C3125.66,1676.55 3130.84,1674.58 3131.11,1674.76C3131.64,1675.39 3124.68,1696.44 3117.72,1715.18C3111.12,1732.94 3101.04,1757.39 3094.62,1770.95C3070.43,1822.08 3054.28,1850.9 3028.05,1890.34C3011.1,1915.85 3002.09,1928.26 2987.63,1945.66C2982.1,1952.35 2976.75,1959.66 2975.76,1961.81C2974.87,1963.95 2971.93,1972.87 2969.25,1981.53C2963.45,2000.62 2952.74,2034.08 2947.3,2050.59C2914.82,2147.66 2898.76,2191.92 2878.42,2239.75C2837.73,2335.76 2795.26,2402.41 2740.56,2456.48C2679.35,2516.97 2608.33,2551.6 2537.39,2555.61C2527.67,2556.24 2507.86,2555.16 2498.13,2553.65L2494.3,2553.02L2496.71,2558.2C2501.79,2569.35 2506.16,2592.37 2505.09,2602.37C2504.2,2610.13 2500.36,2625.83 2496.62,2636.63C2481.45,2680.88 2459.86,2715.24 2424.08,2752.18C2381.34,2796.26 2323.87,2834.36 2222.6,2885.66C2202.79,2895.74 2186.55,2904.22 2186.64,2904.49C2186.73,2904.76 2187.53,2905.47 2188.52,2906C2217.78,2921.53 2238.3,2932.86 2244.82,2937.14L2249.82,2940.36L2257.93,2934.29C2281.76,2916.62 2323.61,2893.6 2370.18,2872.45C2393.02,2862.1 2415.95,2852.38 2427.47,2848.36L2435.5,2845.51L2439.42,2847.38C2449.77,2852.38 2492.24,2881.73 2511.16,2896.99C2551.58,2929.47 2595.21,2974.71 2625.37,3015.4C2658.47,3060.01 2684.8,3107.84 2702.73,3155.66C2706.92,3166.9 2716.38,3197.6 2716.38,3200.18C2716.38,3201.43 2712.01,3201.61 2675.34,3201.43C2652.76,3201.34 2630.9,3201.08 2626.62,3200.81L2618.95,3200.45L2607.97,3184.84C2593.87,3164.76 2586.2,3155.04 2569.69,3135.94C2548.9,3111.94 2529.36,3093.29 2492.16,3062.06C2483.68,3054.83 2482.07,3052.25 2488.41,3055.91C2490.91,3057.33 2501.08,3062.78 2511.16,3068.04C2542.93,3084.72 2567.02,3099.89 2595.03,3120.86C2612.88,3134.25 2617.34,3138.08 2632.24,3152.81C2639.38,3159.76 2645.09,3164.85 2645.09,3164.05C2645.09,3158.61 2620.2,3117.2 2598.69,3086.69C2574.96,3053.14 2551.76,3025.66 2522.49,2996.3C2505.09,2978.9 2481.27,2957.58 2463.78,2943.84C2454.86,2936.79 2431.66,2920.55 2430.5,2920.46C2428.18,2920.46 2408.64,2929.11 2387.05,2939.64C2311.74,2976.31 2283.63,2997.82 2255.08,3040.91C2246.78,3053.41 2236.52,3073.75 2231.61,3087.22C2228.31,3096.41 2222.24,3121.31 2221.08,3130.23C2220.46,3134.96 2220.55,3135.23 2222.24,3134.25C2223.22,3133.71 2227.15,3130.05 2231.08,3126.04C2249.9,3106.59 2293.09,3073.48 2325.21,3053.85C2351,3037.97 2395.61,3015.13 2400.43,3015.13C2402.21,3015.22 2400.88,3016.47 2380.71,3034.67C2360.9,3052.6 2333.51,3083.3 2312.54,3111.14C2279.35,3155.3 2251.24,3202.33 2227.87,3252.83C2225.9,3257.11 2224.03,3260.59 2223.67,3260.59C2221.98,3260.59 2213.95,3254.61 2207.43,3248.46C2184.68,3227.22 2169.42,3200.54 2163.53,3171.81C2157.47,3142.37 2158.8,3109.89 2167.46,3075.71C2168.98,3069.56 2170.05,3064.38 2169.96,3064.29C2169.78,3064.11 2164.69,3060.81 2158.62,3056.89C2152.56,3053.05 2145.15,3047.96 2142.21,3045.64C2139.17,3043.24 2136.32,3041.36 2135.87,3041.36C2135.34,3041.36 2132.66,3047.34 2129.98,3054.74C2118.3,3086.15 2097.95,3122.38 2074.75,3152.81C2049.05,3186.62 2030.41,3207.32 1991.06,3245.6C1968.22,3267.91 1961.88,3273.8 1963.31,3271.21C1984.46,3234.27 1998.19,3206.43 2011.49,3173.42C2020.68,3150.93 2031.3,3118.9 2036.03,3099.45C2041.02,3079.28 2046.65,3052.6 2046.2,3051.26C2045.93,3050.73 2044.15,3052.96 2042.18,3056.17C2028,3079.28 2014.97,3096.15 1996.14,3115.42C1938.41,3174.84 1877.12,3206.43 1833.3,3199.29C1816.26,3196.53 1806.72,3193.22 1787.53,3183.59C1753.62,3166.64 1720.25,3140.49 1686.7,3104.98C1669.84,3087.05 1661.28,3076.43 1650.75,3060.55C1646.37,3053.85 1641.91,3047.34 1640.84,3046C1639.24,3044.04 1638.97,3043.95 1638.97,3045.47C1638.88,3048.23 1646.11,3082.41 1650.21,3099C1654.67,3116.76 1668.41,3158.52 1675.73,3176.36C1681.53,3190.46 1699.2,3228.02 1706.51,3241.85C1709.1,3246.76 1714.01,3255.33 1717.4,3260.86C1720.79,3266.39 1723.29,3271.12 1723.02,3271.39C1721.59,3272.82 1685.9,3238.64 1663.42,3214.28C1634.42,3182.78 1614.79,3158.07 1594.89,3128C1584.54,3112.47 1580.61,3105.69 1572.05,3088.56C1563.57,3071.34 1552.78,3043.77 1552.78,3039.13C1552.78,3036.36 1551.08,3036.99 1541.89,3043.06C1536.71,3046.54 1528.77,3051 1524.31,3053.05L1516.01,3056.8L1516.55,3060.1C1516.82,3061.88 1519.32,3075.98 1522.17,3091.51C1525.03,3106.94 1528.68,3129.16 1530.38,3140.85C1533.14,3159.76 1533.32,3162.53 1532.34,3166.55C1530.83,3172.08 1518.6,3197.06 1516.37,3199.03C1514.14,3200.99 1459.36,3202.33 1457.04,3200.45C1456.23,3199.74 1450.79,3191.17 1444.99,3181.45C1414.83,3130.5 1371.56,3075.36 1327.12,3031.28C1320.25,3024.41 1314.72,3018.52 1314.9,3018.07C1315.16,3017.36 1323.28,3022.36 1357.9,3044.84C1371.64,3053.76 1410.28,3082.85 1427.41,3097.22C1435.26,3103.82 1448.47,3115.95 1456.77,3124.07C1465.07,3132.19 1472.11,3138.8 1472.38,3138.8C1474.43,3138.8 1459.27,3085.44 1446.86,3049.3C1429.82,2999.51 1419.83,2982.2 1396.45,2962.57C1372,2941.96 1343.45,2927.78 1313.56,2921.26C1305.71,2919.57 1301.16,2919.21 1288.04,2919.21C1273.41,2919.21 1271.44,2919.48 1263.68,2921.8C1246.64,2926.97 1234.5,2935.45 1221.48,2950.97C1203.54,2972.3 1177.13,3017.72 1157.5,3060.81C1154.82,3066.52 1152.68,3071.52 1152.68,3071.7C1152.68,3072.23 1132.87,3114.79 1129.75,3120.95C1128.41,3123.54 1127.7,3125.68 1128.23,3125.68C1128.68,3125.68 1136.35,3119.52 1145.28,3111.94C1164.55,3095.79 1180.43,3084.28 1204.7,3069.11C1224.87,3056.44 1251.01,3041.9 1251.9,3042.79C1252.17,3043.14 1249.94,3045.55 1246.82,3048.23C1237.27,3056.26 1209.88,3084.28 1199.53,3096.5C1186.5,3111.85 1169.99,3132.46 1161.69,3143.44C1154.02,3153.79 1132.16,3186.35 1127.43,3194.65L1124.13,3200.36L1081.92,3200.81C1058.73,3201.08 1039.63,3201.17 1039.45,3200.99C1039.19,3200.81 1041.24,3192.33 1044,3182.16C1074.7,3066.34 1118.42,2965.16 1159.91,2913.5C1169.55,2901.54 1186.5,2885.03 1196.76,2877.72C1219.69,2861.3 1245.75,2852.47 1274.74,2851.4C1297.94,2850.59 1319.8,2854.07 1346.13,2862.82C1388.87,2877.09 1422.59,2896.81 1447.93,2922.6C1451.86,2926.62 1455.43,2929.83 1455.88,2929.83C1456.32,2929.83 1464.08,2925.81 1473.1,2920.91C1482.11,2916 1492.73,2910.47 1496.65,2908.5C1500.67,2906.63 1503.79,2904.66 1503.7,2904.13C1503.52,2903.6 1496.74,2899.85 1488.53,2895.83C1403.5,2853.81 1350.68,2823.11 1305.35,2789.21C1253.69,2750.66 1215.5,2707.56 1193.9,2663.31C1178.83,2632.52 1175.35,2614.5 1178.38,2583.72C1179.99,2567.03 1182.75,2549.72 1185.96,2536.51C1187.84,2528.75 1187.93,2527.86 1186.5,2528.22C1185.7,2528.49 1181.24,2529.82 1176.6,2531.16C1158.57,2536.51 1147.95,2537.76 1120.83,2537.76C1101.29,2537.76 1093.88,2537.41 1086.21,2536.07C1020.81,2525.01 961.38,2492.26 905.792,2436.67C860.643,2391.52 822.186,2335.67 779.625,2253.4C758.746,2213.34 721.806,2130.36 701.105,2077.26C692.093,2054.16 692.807,2055.23 665.415,2026.67C606.525,1965.29 563.785,1912.29 519.35,1845.37C494.813,1808.34 467.242,1761.85 468.937,1760.15C469.294,1759.8 470.722,1760.15 472.149,1760.96C484.016,1766.93 544.245,1783.71 657.563,1812.62C762.583,1839.48 832.105,1864.32 862.695,1879.18C899.939,1897.28 965.472,1943.59 991.271,1991.61C1000.28,2008.38 1001.62,2009.81 999.391,2000.26C990.646,1963.32 979.136,1884.98 974.675,1831.8C971.909,1799.23 970.481,1731.58 971.819,1701.42C974.47,1641.69 997.338,1531.91 1015.45,1449.55C1028.66,1389.86 1035.44,1362.47 1044.54,1332.04C1068.01,1253.79 1099.68,1173.93 1135.37,1102.82C1169.1,1035.72 1203.36,977.634 1244.32,918.387C1312.58,819.702 1382.26,738.684 1471.22,654.633C1544.21,585.66 1626.3,522.131 1709.19,470.379C1749.34,445.217 1799.93,416.933 1834.73,400.069C1880.24,378.03 1886.04,374.907 1894.69,368.572C1927.97,344.034 1946.27,334.844 1971.96,330.115C1991.5,326.457 2019.25,328.241 2036.21,334.309C2065.65,344.748 2092.24,366.698 2109.64,394.894C2129.54,427.104 2133.46,471.361 2119.81,509.282C2107.05,544.884 2073.95,577.005 2037.72,589.051C2022.73,594.048 2013.54,595.475 1995.88,595.565C1977.94,595.654 1971.16,594.583 1954.65,589.319C1929.4,581.288 1903.79,562.551 1886.93,539.976C1883.27,534.98 1879.97,530.608 1879.61,530.161C1878.72,529.091 1874.08,538.37 1870.51,548.453C1859.36,580.128 1862.57,612.518 1880.6,649.011C1890.94,670.069 1902.37,686.576 1923.33,710.846C1935.56,725.033 1962.51,751.801 1981.42,768.575C2007.83,791.953 2055.39,831.034 2090.55,858.07C2098.49,864.227 2108.84,872.257 2113.48,875.915C2118.12,879.484 2134.36,892.155 2149.52,903.932C2220.64,959.164 2254.01,987.716 2303.08,1035.36C2368.58,1098.98 2415.87,1155.91 2467.8,1233.63C2485.73,1260.57 2497.15,1279.22 2548.1,1365.24C2594.74,1443.98 2637.09,1516 2655.07,1604.45C2662.19,1639.52 2662.93,1665.48 2663.56,1709.56C2664.18,1753.64 2663.11,1783.53 2659.72,1816.37C2653.83,1873.03 2646.7,1917.46 2637.6,1953.86C2634.38,1966.44 2634.29,1967.78 2636.17,1965.82C2637.33,1964.57 2639.47,1960.82 2650.09,1941.37ZM2084.39,1590.18C2083.68,1594.55 2081.98,1605.43 2080.64,1614.45C2072.07,1672.27 2052.89,1742.31 2030.5,1797.54L2025.94,1808.6L2028.53,1808.16C2033.8,1807.27 2080.91,1792.9 2105.98,1784.6C2159.07,1766.93 2192.26,1753.19 2234.47,1731.6C2271.59,1712.6 2296.39,1697.25 2326.01,1675.03C2340.92,1663.79 2367.06,1641.12 2368.75,1637.91C2370.63,1634.52 2368.75,1632.29 2389.9,1662.81C2409.35,1690.74 2418.19,1705.63 2432.91,1735.26C2450.49,1770.41 2464.58,1809.14 2475.38,1851.97C2492.87,1920.94 2499.12,1994.91 2494.21,2075.93C2491.08,2128.84 2483.5,2181.57 2471.72,2232.61C2460.75,2279.81 2438.89,2346.64 2417.74,2397.23C2406.41,2424.45 2402.66,2436.4 2400.52,2452.55C2398.47,2468.53 2400.52,2480.75 2410.78,2513.58C2428.09,2568.64 2431.03,2593 2423.45,2619.59C2418.9,2635.91 2403.55,2663.4 2388.47,2682.67C2379.37,2694.18 2353.05,2720.23 2339.67,2730.85C2281.94,2776.8 2195.83,2822.13 2039.78,2888.96C1961.61,2922.42 1859.45,2961.24 1844.55,2963.2C1840.53,2963.73 1837.94,2963.2 1826.26,2959.36C1780.66,2944.55 1668.59,2899.04 1587.84,2862.64C1489.07,2818.03 1424.74,2784.57 1378.52,2753.69C1350.77,2735.22 1330.15,2718.72 1311.51,2699.89C1276.8,2665.09 1257.61,2630.83 1252.88,2595.23C1251.01,2581.04 1254.94,2556.41 1266.98,2506.71C1270.02,2494.22 1273.23,2478.7 1274.12,2472.36C1275.55,2461.57 1275.55,2460.23 1274.12,2451.75C1271.53,2436.05 1264.39,2419.54 1245.92,2386.53C1229.24,2356.72 1226.83,2350.83 1221.03,2327.01C1209.97,2281.15 1197.3,2206.55 1190.69,2147.58C1185.79,2104.12 1182.66,2053.8 1182.66,2019.71C1182.66,1967.69 1189.09,1904.34 1199.62,1853.39C1204.88,1827.61 1216.57,1778.89 1218.26,1775.59C1219.25,1773.81 1221.65,1771.13 1223.62,1769.52C1230.76,1763.9 1236.47,1759.8 1236.64,1759.98C1236.82,1760.15 1236.11,1769.25 1235.13,1780.32C1234.15,1791.38 1232.45,1810.39 1231.38,1822.43C1224.6,1900.06 1215.86,1972.42 1209.52,2003.03C1208.27,2008.83 1207.47,2013.56 1207.65,2013.56C1207.82,2013.56 1216.57,2008.38 1227.01,2002.05C1280.72,1969.21 1358.8,1924.69 1358.8,1927.01C1358.8,1927.63 1358.35,1929.33 1357.9,1930.66C1354.78,1938.7 1347.2,1992.05 1349.16,1992.05C1349.52,1992.05 1352.82,1989.64 1356.48,1986.79C1377.09,1970.19 1407.07,1953.42 1429.11,1946.19C1446.6,1940.48 1459.71,1938.34 1476.84,1938.25C1512.98,1938.16 1545.99,1949.94 1587.39,1977.51C1602.92,1987.86 1631.74,2010.26 1644.05,2021.41C1648.16,2025.16 1652.8,2029.08 1654.32,2030.06L1656.99,2031.85L1656.55,2029.53C1646.29,1982.15 1641.64,1967.61 1627.99,1940.12C1605.69,1895.6 1576.69,1864.55 1541.98,1848.13C1537.07,1845.81 1533.06,1843.76 1533.06,1843.58C1533.06,1843.4 1537.16,1840.73 1542.16,1837.69C1566.43,1822.7 1607.83,1790.76 1633.88,1766.85C1643.07,1758.37 1650.92,1751.68 1651.19,1752.03C1651.46,1752.39 1652.26,1758.82 1652.89,1766.22C1655.21,1793.08 1661.9,1833.23 1670.38,1870.08C1672.7,1880.25 1674.75,1889.62 1675.02,1890.87C1676.89,1899.44 1677.34,1900.33 1679.48,1899.7C1699.64,1893.55 1760.67,1864.1 1800.47,1841.26C1888.09,1791.03 1957.33,1736.78 2015.15,1673.07C2038.88,1646.92 2061.1,1618.37 2077.88,1592.41C2081.8,1586.43 2085.19,1581.7 2085.37,1581.88C2085.55,1582.06 2085.1,1585.8 2084.39,1590.18ZM1741.04,2756.28C1741.04,2757.8 1752.47,2770.65 1759.87,2777.52C1771.87,2788.65 1781.82,2795.54 1801.27,2801.97C1814.27,2806.26 1826.97,2807.47 1845.14,2806.87C1875.69,2805.87 1893.8,2798.75 1917.27,2783.23C1925.83,2777.52 1941.8,2761.99 1939.57,2761.55C1938.77,2761.28 1932.79,2762.62 1926.37,2764.49C1874.08,2779.21 1838.64,2780.73 1801.81,2773.32C1786.73,2770.29 1768.26,2765.12 1753.71,2759.85C1740.95,2755.3 1741.04,2755.3 1741.04,2756.28ZM1592.48,2508.94C1579.9,2532.59 1570.68,2545.02 1556.7,2559C1530.76,2584.94 1506.02,2597.46 1471.13,2608.79C1464.44,2610.93 1459.09,2613.07 1459.09,2613.52C1459.09,2615.12 1489.6,2613.43 1499.77,2611.29C1520.69,2606.89 1536.39,2600.31 1552.51,2589.43C1558.46,2585.41 1563.93,2580.41 1564.55,2580.41C1565.18,2580.41 1567.94,2582.82 1570.71,2585.68C1576.87,2592.28 1587.22,2601.03 1606.58,2616.11C1671.54,2666.61 1738.28,2696.05 1807.07,2704.62C1821.79,2706.49 1855.16,2706.67 1869.44,2705.15C1894.34,2702.3 1922.71,2696.14 1944.84,2688.65C2000.52,2669.82 2063.24,2631.99 2108.03,2590.14L2118.47,2580.41L2127.31,2586.75C2143.89,2599.96 2171.59,2612.98 2207.34,2612.98C2220.11,2612.98 2226.35,2613.16 2226.35,2612.45C2226.35,2611.91 2217.16,2608.52 2205.83,2604.86C2182.45,2597.28 2167.01,2590.05 2149.52,2578.27C2134.36,2568.19 2125.25,2560.61 2114.37,2549.36C2102.68,2537.14 2094.11,2525.18 2086.53,2510.37C2083.32,2504.13 2080.37,2498.95 2079.93,2498.95C2078.86,2498.86 2079.12,2503.59 2080.73,2514.12C2083.14,2530.18 2092.78,2550.97 2102.95,2562.21C2107.41,2567.12 2108.39,2569.17 2106.16,2569.17C2105.53,2569.17 2100.18,2571.05 2094.29,2573.28C2059.05,2586.57 2051.11,2589.43 2034.87,2594.51C1960.54,2617.89 1881.31,2628.15 1811.36,2623.69C1735.51,2618.78 1664.58,2602.01 1581.33,2569.26C1578.74,2568.28 1576.78,2566.94 1576.87,2566.32C1577.05,2565.69 1578.65,2562.93 1580.44,2560.16C1588.64,2547.22 1596.59,2527.5 1598.55,2515.1C1599.8,2506.98 1599.89,2498.86 1598.73,2498.86C1598.28,2498.86 1595.43,2503.41 1592.48,2508.94ZM1713.92,2465.05C1713.92,2466.12 1742.74,2500.2 1758.44,2517.6C1797.61,2561.23 1824.65,2574.44 1858.82,2566.76C1877.03,2562.66 1901.56,2544.99 1923.87,2519.83C1940.64,2501 1943.59,2497.52 1950.73,2488.6C1954.65,2483.69 1960.36,2477 1963.4,2473.79C1966.43,2470.49 1968.66,2467.63 1968.39,2467.37C1968.13,2467.1 1959.38,2471.2 1948.85,2476.47C1918.69,2491.72 1900.93,2498.52 1874.71,2503.77C1858.02,2507.11 1834.16,2507.34 1818.31,2504.22C1791.82,2498.99 1775.13,2493.42 1757.02,2485.57C1745.59,2480.57 1724.54,2470.31 1717.85,2466.38C1715.7,2465.13 1713.92,2464.51 1713.92,2465.05ZM2878.42,2041.49C2877.97,2042.91 2872.44,2061.29 2866.19,2082.44C2836.12,2184.34 2810.7,2249.56 2778.57,2307.47C2742.26,2372.96 2694.43,2426.32 2644.55,2457.01C2600.03,2484.32 2561.04,2495.56 2515.53,2493.95C2493.76,2493.24 2475.65,2489.67 2471.37,2485.39C2468.24,2482.36 2466.64,2473.97 2466.64,2460.94C2466.72,2450.77 2466.9,2449.16 2469.31,2443.45C2470.74,2440.06 2473.42,2435.6 2475.2,2433.46C2479.93,2427.93 2488.76,2422.39 2497.15,2419.81C2514.82,2414.18 2531.5,2415.88 2562.73,2426.5C2570.94,2429.26 2576.3,2430.6 2577.81,2430.25C2579.06,2429.89 2584.06,2427.21 2588.97,2424.27C2626.89,2401.43 2648.57,2372.61 2661.51,2327.81C2670.16,2297.92 2679.89,2238.5 2682.57,2198.61C2684.26,2174.7 2683.81,2176.4 2689.44,2173.27C2703.53,2165.69 2763.58,2125.72 2799.72,2099.93C2826.31,2080.92 2870.48,2046.75 2875.56,2041.31C2878.51,2038.18 2879.49,2038.27 2878.42,2041.49ZM804.073,2114.2C820.312,2126.16 890.088,2173.27 902.044,2180.32C904.096,2181.57 905.97,2182.64 906.059,2182.73C906.238,2182.91 907.398,2188 908.647,2194.06C914.804,2224.31 928.723,2269.37 939.609,2294.53C966.823,2357.08 998.587,2394.73 1042.93,2416.86L1053.55,2422.22L1064.97,2417.13C1085.49,2407.94 1099.33,2404.28 1113.87,2404.28C1129.31,2404.28 1150.9,2410.17 1168.65,2419.36C1187.39,2429 1193.82,2436.76 1199.62,2456.57L1201.31,2462.46L1197.3,2464.24C1189.18,2467.63 1172.22,2472.72 1160.98,2474.95C1136.09,2479.95 1113.78,2480.12 1086.65,2475.48C1028.39,2465.49 962.183,2420.61 913.465,2358.15C894.103,2333.26 873.492,2300.15 857.698,2268.75C843.779,2241 822.721,2190.49 812.103,2159.71C809.248,2151.23 804.162,2136.51 800.772,2127.05C794.704,2109.74 794.347,2108.23 795.418,2108.23C795.686,2108.23 799.612,2110.9 804.073,2114.2ZM2218.41,2053.35C2201.43,2049.8 2174.58,2052.03 2164.07,2053.98C2138.75,2058.67 2113.21,2069.77 2094.29,2082.44C2036.56,2120.9 2000.61,2187.19 1991.68,2271.69C1990.08,2286.41 1989.81,2309.43 1991.24,2306.4C1991.77,2305.33 1994.45,2295.07 1997.3,2283.47C2007.48,2242.34 2017.47,2216.82 2034.42,2188.8C2040.93,2178.09 2055.75,2157.48 2056.55,2158.28C2056.73,2158.46 2055.21,2162.39 2053.16,2166.94C2038.97,2197.81 2034.15,2228.33 2036.21,2273.3C2038.53,2322.37 2055.93,2369.3 2083.41,2400.71C2091.53,2410.08 2091.7,2410.08 2074.48,2402.85C2058.6,2396.16 2036.12,2384.47 2026.57,2378.05C2021.93,2374.84 2017.91,2372.52 2017.65,2372.78C2016.84,2373.68 2032.01,2388.31 2041.83,2396.07C2080.64,2427.03 2126.41,2443.63 2173.44,2443.63C2221.53,2443.63 2264.98,2429.18 2303.71,2400.18C2319.77,2388.31 2341.54,2366.18 2340.47,2363.06C2340.29,2362.43 2336.54,2364.66 2332.17,2367.88C2313.43,2381.8 2285.6,2397.23 2264.98,2405.08C2257.49,2407.94 2228.94,2416.6 2228.49,2416.06C2228.4,2415.97 2232.15,2411.87 2236.97,2406.96C2266.86,2376.35 2286.31,2335.58 2293.45,2288.55C2296.41,2269.03 2296.75,2240.94 2293,2216.55C2289.43,2193.35 2283.63,2174.7 2274.09,2155.78C2272.03,2151.68 2270.52,2148.11 2270.69,2147.84C2271.5,2147.04 2283.9,2159.44 2290.95,2168.19C2305.31,2185.94 2317,2205.48 2326.37,2227.7C2334.05,2245.55 2337.88,2258.22 2344.13,2285.97C2347.07,2298.99 2349.75,2309.61 2350.02,2309.61C2350.37,2309.61 2351.62,2302.21 2352.87,2293.01C2359.83,2242.34 2351.44,2189.6 2329.32,2145.52C2304.6,2096.27 2264.45,2062.99 2218.41,2053.35ZM1467.92,2052.55C1427.41,2060.13 1392.35,2085.12 1365.67,2125.54C1338.9,2166.05 1324.53,2223.06 1328.73,2272.14C1329.71,2284 1332.65,2303.54 1334.08,2308.1C1334.7,2310.06 1334.7,2310.06 1335.42,2308.27C1335.87,2307.2 1336.22,2305.06 1336.22,2303.45C1336.31,2299.35 1342.38,2271.6 1346.13,2257.77C1354.34,2227.79 1368.43,2199.24 1388.15,2172.65C1393.68,2165.06 1411.26,2145.35 1411.89,2145.97C1412.07,2146.15 1410.37,2150.34 1408.05,2155.25C1398.06,2176.66 1391.63,2200.93 1388.78,2228.15C1387.62,2239.84 1387.62,2267.14 1388.78,2280.17C1390.2,2294.98 1394.76,2316.66 1399.57,2330.94C1408.85,2358.95 1428.66,2390.54 1448.02,2408.47C1451.68,2411.87 1454.36,2414.9 1454.09,2415.17C1453.38,2415.88 1423.75,2407.58 1413.13,2403.57C1394.58,2396.7 1368.16,2381.89 1350.05,2368.32C1346.21,2365.38 1342.83,2363.06 1342.47,2363.06C1341.04,2363.06 1348.62,2372.34 1357.37,2381.26C1373.7,2397.86 1397.25,2414.1 1418.49,2423.47C1437.85,2432.03 1459.27,2438.28 1479.52,2441.4C1492.82,2443.36 1520.56,2443.36 1534.48,2441.31C1572.76,2435.6 1609.52,2418.29 1641.47,2390.99C1647.53,2385.72 1653.33,2380.64 1654.32,2379.57C1659.4,2373.94 1660.83,2372.16 1660.03,2372.61C1659.49,2372.87 1654.05,2376.18 1647.8,2379.92C1635.76,2387.33 1596.32,2407.4 1594.8,2406.87C1594.36,2406.78 1596.76,2403.48 1600.15,2399.55C1622.64,2374.12 1639.15,2336.65 1645.57,2296.76C1648.33,2279.63 1650.06,2260.33 1647.44,2230.91C1645.57,2209.86 1640.22,2188.44 1631.92,2169.53C1630.22,2165.51 1628.98,2161.94 1629.24,2161.67C1631.03,2159.89 1649.05,2184.52 1659.31,2202.81C1675.19,2230.91 1684.12,2255.63 1693.75,2298.73C1695.36,2305.6 1696.34,2307.74 1697.32,2306.13C1698.3,2304.44 1695.89,2272.49 1693.66,2258.31C1682.33,2184.96 1657.17,2136.24 1610.33,2097.16C1583.02,2074.32 1554.65,2060.85 1519.49,2053.8C1505.93,2051.12 1479.07,2050.5 1467.92,2052.55ZM1825.81,2402.76C1803.95,2406.44 1783.07,2414.28 1759.07,2427.48C1755.86,2429.18 1754.96,2430.96 1757.64,2430.16C1770.49,2426.14 1801.54,2421.14 1824.92,2419.18C1840.8,2417.84 1862.12,2418.56 1883.72,2421.14C1899.24,2423.02 1918.87,2426.59 1924.05,2428.55C1927.71,2429.98 1929.22,2429.8 1926.99,2428.28C1914.59,2419.9 1888.55,2409.15 1866.14,2404.19C1855.25,2401.78 1835.89,2401.07 1825.81,2402.76ZM651.317,1890.34C656.581,1892.12 671.75,1896.85 685.044,1900.77C720.824,1911.39 745.986,1919.33 760.173,1924.51C785.068,1933.52 793.544,1936.64 803.27,1940.3C869.03,1965.46 926.938,1999.73 975.121,2041.75C997.784,2061.56 1025.53,2091.72 1044.09,2116.61C1077.91,2162.3 1105.84,2215.39 1125.2,2270.8C1133.14,2293.64 1135.02,2299.53 1134.57,2299.97C1134.21,2300.33 1130.91,2297.66 1127.16,2294.09C1123.42,2290.52 1110.66,2279.63 1098.88,2269.82C1087.01,2260.09 1067.2,2243.58 1054.8,2233.23C968.072,2160.96 888.482,2099.3 815.405,2047.64C791.403,2030.69 786.495,2027.39 772.754,2018.82C765.527,2014.27 756.783,2008.29 753.214,2005.44C738.67,1993.66 688.881,1942.89 662.113,1912.55C645.16,1893.19 641.234,1888.55 641.145,1887.84C641.145,1886.86 640.52,1886.77 651.317,1890.34ZM2995.39,1806.82C2991.74,1813.96 2955.42,1863.75 2941.68,1880.52C2931.95,1892.39 2898.49,1929.68 2888.59,1939.5C2879.76,1948.33 2873.33,1953.24 2841.39,1975.73C2800.88,2004.19 2763.76,2031.85 2734.67,2055.23C2701.93,2081.64 2668.74,2109.03 2653.66,2122.15C2640.81,2133.3 2563.89,2201.74 2549.71,2214.67C2545.42,2218.51 2541.68,2221.55 2541.41,2221.19C2540.78,2220.65 2541.68,2218.33 2555.77,2183.18C2575.67,2133.57 2595.12,2092.97 2612.61,2064.68C2634.65,2029.08 2648.3,2010.61 2670.16,1986.88C2709.69,1943.87 2751.54,1914.07 2821.31,1879.09C2856.29,1861.52 2924.37,1832.16 2973.27,1813.51C2981.92,1810.21 2990.13,1806.91 2991.56,1806.19C2995.48,1804.05 2996.73,1804.23 2995.39,1806.82ZM1501.22,2094.5C1523.32,2094.5 1541.26,2120.32 1541.26,2152.13C1541.26,2183.94 1523.32,2209.76 1501.22,2209.76C1479.12,2209.76 1461.18,2183.94 1461.18,2152.13C1461.18,2120.32 1479.12,2094.5 1501.22,2094.5ZM2151.36,2094.5C2173.45,2094.5 2191.39,2120.32 2191.39,2152.13C2191.39,2183.94 2173.45,2209.76 2151.36,2209.76C2129.26,2209.76 2111.32,2183.94 2111.32,2152.13C2111.32,2120.32 2129.26,2094.5 2151.36,2094.5ZM2179.06,1835.46C2146.58,1841.44 2121.95,1854.38 2100,1876.77C2073.5,1903.81 2053.96,1939.77 2042.72,1982.24C2039.78,1993.3 2032.46,2026.23 2032.46,2028.37C2032.46,2029.08 2036.3,2026.14 2041.11,2021.86C2075.29,1990.98 2116.78,1963.23 2147.38,1950.47C2192.62,1931.74 2236.88,1934.14 2284.88,1957.79C2297.91,1964.22 2325.57,1981.43 2333.15,1987.95C2340.47,1994.11 2339.93,1994.28 2339.22,1985.45C2335.92,1943.42 2329.14,1921.03 2312.27,1895.51C2291.48,1864.28 2258.83,1842.33 2224.03,1836.09C2210.64,1833.68 2190.3,1833.41 2179.06,1835.46ZM1500.31,1608.29C1500.31,1609.63 1492.99,1629.17 1489.42,1637.64C1472.03,1678.33 1445.17,1719.73 1410.37,1759.26C1393.42,1778.44 1367.18,1804.94 1348,1821.99C1333.19,1835.19 1292.5,1868.47 1286.17,1872.49L1283.4,1874.36L1285.01,1871.95C1289.29,1865.35 1301.6,1843.22 1307.67,1831C1334.08,1778.27 1354.25,1727.32 1365.93,1683.33C1368.25,1674.58 1370.75,1666.47 1371.47,1665.39C1375.39,1659.33 1436.78,1631.04 1479.88,1615.61C1488.44,1612.48 1496.3,1609.54 1497.19,1609C1498.97,1607.93 1500.31,1607.66 1500.31,1608.29ZM1897.55,1184.46C1989.99,1187.23 2086.17,1202.93 2175.13,1229.88C2283.19,1262.54 2381.69,1313.57 2453.07,1373.71C2489.03,1404.05 2515.62,1432.96 2538.2,1466.42C2575.31,1521.29 2596.64,1577.68 2606.63,1647.19C2607.7,1654.6 2608.86,1661.65 2609.13,1662.81C2609.49,1664.06 2609.31,1665.04 2608.86,1665.04C2608.42,1665.04 2603.42,1660.58 2597.8,1655.13C2581.74,1639.52 2551.4,1615.69 2526.15,1598.83C2386.24,1505.77 2215.46,1453.84 2018.63,1444.47C1967.77,1442.06 1906.2,1442.6 1858.2,1445.9C1768.17,1452.05 1662.17,1470.61 1577.13,1495.15C1529.58,1508.89 1500.04,1518.97 1448.74,1539.05C1352.02,1576.97 1255.38,1631.67 1181.77,1690.2C1145.81,1718.75 1097.81,1764.44 1073.98,1792.81C1053.19,1817.53 1029.73,1849.56 1021.25,1864.73C1020.27,1866.51 1019.2,1867.4 1018.75,1866.87C1017.77,1865.89 1015.27,1826.98 1014.38,1799.5C1013.22,1761.85 1017.5,1713.22 1025.44,1676.28C1036.15,1625.87 1057.39,1575.9 1086.39,1532.71C1119.13,1483.73 1164.1,1435.72 1216.39,1393.7C1278.76,1343.64 1350.94,1300.9 1426.7,1269.23C1506.02,1236.12 1582.49,1214.35 1671.72,1199.45C1723.91,1190.71 1784.05,1185.09 1833.3,1184.19C1863.11,1183.57 1870.6,1183.66 1897.55,1184.46ZM1961.26,1525.49C1961.26,1528.7 1945.64,1566.09 1937.88,1581.43C1924.67,1607.75 1902.81,1640.05 1879.88,1667.45C1849.81,1703.23 1810.28,1737.85 1764.96,1768.18C1748.36,1779.34 1723.38,1793.88 1722.57,1793.08C1721.59,1792.1 1724.09,1745.61 1726.05,1726.87C1733.28,1657.18 1744.08,1609.09 1762.82,1561.98C1765.4,1555.56 1768.17,1549.58 1769.06,1548.68C1769.95,1547.79 1774.41,1546.28 1779.95,1545.12C1791.1,1542.8 1839.64,1534.77 1840.09,1535.21C1840.26,1535.39 1838.03,1540.39 1835.18,1546.45C1828.93,1559.48 1821.26,1579.02 1816.53,1593.83C1808.14,1619.89 1796.36,1677.17 1800.38,1672.53C1800.56,1672.27 1804.39,1665.22 1808.86,1656.74C1824.65,1627.2 1846.6,1594.64 1871.76,1563.85C1889.43,1542.26 1899.42,1531.29 1902.37,1530.31C1904.95,1529.32 1926.73,1527.18 1948.59,1525.58C1954.74,1525.13 1960.1,1524.77 1960.54,1524.68C1960.9,1524.59 1961.26,1524.95 1961.26,1525.49ZM2218.23,1554.93C2226.7,1556.72 2239.55,1559.66 2246.69,1561.44C2266.95,1566.53 2306.56,1579.11 2306.3,1580.27C2305.94,1582.14 2291.04,1599.55 2280.69,1610.16C2256.42,1635.15 2223.76,1660.66 2190.03,1680.92C2171.21,1692.25 2116.15,1720.98 2115.17,1720C2114.9,1719.73 2119.99,1712.42 2126.41,1703.67C2139.44,1686.1 2147.2,1674.23 2159.07,1653.35C2176.38,1623.01 2185.93,1600.62 2194.94,1569.03C2200.2,1550.56 2199.76,1551.72 2201.45,1551.72C2202.17,1551.72 2209.75,1553.15 2218.23,1554.93ZM1781.55,543.724C1779.23,553.539 1779.05,556.037 1779.05,574.061C1778.97,594.851 1779.86,601.989 1784.68,621.44C1797.97,675.066 1836.43,731.457 1897.99,787.67C1932.35,819.078 1958.58,839.957 2025.23,888.764C2111.6,952.115 2146.94,979.418 2189.41,1015.47C2254.1,1070.43 2313.79,1133.34 2353.5,1188.48C2359.03,1196.24 2367.68,1208.11 2372.68,1215.07C2382.94,1229.25 2388.92,1238.62 2388.12,1239.42C2387.85,1239.69 2380.98,1236.12 2372.95,1231.31C2347.79,1216.4 2294.34,1191.06 2255.08,1175.45C2241.78,1170.18 2229.38,1164.74 2227.6,1163.32C2225.9,1161.98 2219.39,1154.12 2213.14,1145.92C2142.74,1052.5 2074.04,983.701 1996.86,929.541C1983.21,919.904 1961.52,905.717 1936.9,890.281C1892.82,862.62 1874.97,850.486 1856.77,835.852C1808.68,797.128 1776.11,749.927 1763.17,700.049C1751.31,654.454 1753.18,608.056 1768.7,563.265C1772.99,551.04 1782.62,531.5 1783.78,532.66C1783.96,532.838 1782.98,537.835 1781.55,543.724ZM1999.32,362.128C2049.33,362.128 2089.93,403.978 2089.93,455.526C2089.93,507.074 2049.33,548.924 1999.32,548.924C1949.31,548.924 1908.7,507.074 1908.7,455.526C1908.7,403.978 1949.31,362.128 1999.32,362.128Z"/>
        </g>
    </g>
</svg>
